<svg xmlns="http://www.w3.org/2000/svg" viewBox="0 0 1200 630"><defs><linearGradient id="a" x1="0%" x2="100%" y1="0%" y2="100%"><stop offset="0%" style="stop-color:#f5f5f5;stop-opacity:1"/><stop offset="50%" style="stop-color:#e6e6e6;stop-opacity:1"/><stop offset="100%" style="stop-color:#f5f5f5;stop-opacity:1"/></linearGradient><linearGradient id="b" x1="0%" x2="100%" y1="0%" y2="0%"><stop offset="0%" style="stop-color:#f29200;stop-opacity:1"/><stop offset="100%" style="stop-color:#e68600;stop-opacity:1"/></linearGradient></defs><path fill="url(#a)" d="M0 0h1200v630H0z"/><circle cx="100" cy="100" r="150" fill="#f29200" opacity=".1"/><circle cx="1100" cy="530" r="200" fill="#f29200" opacity=".1"/><circle cx="300" cy="315" r="120" fill="url(#b)"/><path fill="#fff" d="M272 329c-3.52 0-6.4 2.88-6.4 6.4v12.8c0 3.52 2.88 6.4 6.4 6.4h6.6c0 10.6 8.6 19.2 19.2 19.2s19.2-8.6 19.2-19.2h16.8c0 10.6 8.6 19.2 19.2 19.2s19.2-8.6 19.2-19.2h6.6c3.52 0 6.4-2.88 6.4-6.4v-12.8c0-3.52-2.88-6.4-6.4-6.4h-7.16l-7.48-25.6h16.64c3.52 0 6.4-2.88 6.4-6.4v-6.4c0-3.52-2.88-6.4-6.4-6.4H259.2c-3.52 0-6.4 2.88-6.4 6.4v6.4c0 3.52 2.88 6.4 6.4 6.4h16.64l-7.4 25.6z"/><text x="480" y="280" fill="#101010" font-family="Arial, sans-serif" font-size="80" font-weight="bold">
    Medjira
  </text><text x="480" y="340" fill="#666" font-family="Arial, sans-serif" font-size="40">
    Mobilité et Livraison
  </text><text x="480" y="390" fill="#666" font-family="Arial, sans-serif" font-size="40">
    au Cameroun 🇨🇲
  </text><g fill="#f29200" font-family="Arial, sans-serif" font-size="28"><text transform="translate(480 440)">
      🚗 Taxi rapide
    </text><text x="200" transform="translate(480 440)">
      📦 Livraison
    </text><text x="400" transform="translate(480 440)">
      🔒 Sécurisé
    </text></g><text x="600" y="580" fill="#999" font-family="Arial, sans-serif" font-size="24" text-anchor="middle">
    www.medjira.com
  </text></svg>